<?xml version="1.0" encoding="UTF-8" standalone="no"?>
<!-- Created with Inkscape (http://www.inkscape.org/) -->

<svg
   width="210mm"
   height="297mm"
   viewBox="0 0 210 297"
   version="1.1"
   id="svg5"
   xml:space="preserve"
   sodipodi:docname="imgArticle.svg"
   inkscape:version="1.2.2 (732a01da63, 2022-12-09)"
   xmlns:inkscape="http://www.inkscape.org/namespaces/inkscape"
   xmlns:sodipodi="http://sodipodi.sourceforge.net/DTD/sodipodi-0.dtd"
   xmlns="http://www.w3.org/2000/svg"
   xmlns:svg="http://www.w3.org/2000/svg"><sodipodi:namedview
     id="namedview7"
     pagecolor="#505050"
     bordercolor="#eeeeee"
     borderopacity="1"
     inkscape:showpageshadow="0"
     inkscape:pageopacity="0"
     inkscape:pagecheckerboard="0"
     inkscape:deskcolor="#505050"
     inkscape:document-units="mm"
     showgrid="false"
     inkscape:zoom="0.53354915"
     inkscape:cx="-415.14451"
     inkscape:cy="665.35576"
     inkscape:window-width="2560"
     inkscape:window-height="1027"
     inkscape:window-x="-8"
     inkscape:window-y="-8"
     inkscape:window-maximized="1"
     inkscape:current-layer="layer1" /><defs
     id="defs2"><filter
       inkscape:collect="always"
       style="color-interpolation-filters:sRGB"
       id="filter15564"
       x="-0.033746815"
       y="-0.024564162"
       width="1.0673564"
       height="1.0670228"><feGaussianBlur
         inkscape:collect="always"
         stdDeviation="0.49377409"
         id="feGaussianBlur15566" /></filter><filter
       inkscape:collect="always"
       style="color-interpolation-filters:sRGB"
       id="filter15568"
       x="-0.029788165"
       y="-0.029335775"
       width="1.0610025"
       height="1.0586783"><feGaussianBlur
         inkscape:collect="always"
         stdDeviation="0.44386193"
         id="feGaussianBlur15570" /></filter><filter
       inkscape:collect="always"
       style="color-interpolation-filters:sRGB"
       id="filter15621"
       x="-0.042919684"
       y="-0.035212944"
       width="1.067076"
       height="1.0704527"><feGaussianBlur
         inkscape:collect="always"
         stdDeviation="0.4784304"
         id="feGaussianBlur15623" /></filter><filter
       inkscape:collect="always"
       style="color-interpolation-filters:sRGB"
       id="filter15625"
       x="-0.032253914"
       y="-0.032962107"
       width="1.064497"
       height="1.0608916"><feGaussianBlur
         inkscape:collect="always"
         stdDeviation="0.43022074"
         id="feGaussianBlur15627" /></filter><filter
       inkscape:collect="always"
       style="color-interpolation-filters:sRGB"
       id="filter15629"
       x="-0.026341371"
       y="-0.028812855"
       width="1.0526872"
       height="1.0786352"><feGaussianBlur
         inkscape:collect="always"
         stdDeviation="0.52301501"
         id="feGaussianBlur15631" /></filter><filter
       inkscape:collect="always"
       style="color-interpolation-filters:sRGB"
       id="filter15633"
       x="-0.028485935"
       y="-0.03700841"
       width="1.0572967"
       height="1.0742172"><feGaussianBlur
         inkscape:collect="always"
         stdDeviation="0.36931749"
         id="feGaussianBlur15635" /></filter></defs><g
     inkscape:label="Layer 1"
     inkscape:groupmode="layer"
     id="layer1"><path
       style="fill:#008000;fill-opacity:1;stroke:#000000;stroke-width:1.51181;stroke-dasharray:none;paint-order:stroke fill markers;filter:url(#filter15633);stroke-opacity:1"
       d="m 397.91799,482.65692 c -29.36632,-1.74072 -31.78369,-2.19085 -37.34919,-6.95471 -7.10127,-6.07842 -7.76619,-14.72087 -2.03339,-26.42928 1.42759,-2.91563 3.71612,-6.53872 5.08563,-8.05129 l 2.49001,-2.75014 14.24686,0.85738 c 7.83577,0.47155 17.87663,1.07513 22.31302,1.34127 7.48092,0.44879 8.09038,0.58611 8.40005,1.89276 0.18364,0.77488 0.54581,10.28002 0.80481,21.12254 l 0.47092,19.71367 -2.57585,-0.0961 c -1.41672,-0.0529 -6.75051,-0.3436 -11.85287,-0.64605 z"
       id="path1094"
       transform="matrix(1.1524255,0,0,1.1524255,-370.8163,-334.80523)" /><path
       style="fill:#008000;fill-opacity:1;stroke:#000000;stroke-width:1.51181;stroke-dasharray:none;paint-order:stroke fill markers;filter:url(#filter15564);stroke-opacity:1"
       d="m 346.5146,456.83283 c -1.75779,-3.06458 -6.35238,-11.07939 -10.21019,-17.81069 -3.8578,-6.73129 -7.28334,-12.62054 -7.61231,-13.08722 -2.23382,-3.16896 -3.32322,-7.06955 -2.71487,-9.72058 0.3252,-1.4171 8.39237,-17.25914 11.03541,-21.67097 l 0.63225,-1.05536 -5.63557,-3.846 c -3.09957,-2.1153 -5.70572,-3.9595 -5.79144,-4.09821 -0.0857,-0.13871 4.34504,-0.51194 9.84615,-0.82941 5.50112,-0.31747 13.7294,-0.80995 18.28509,-1.09439 4.55568,-0.28445 9.46816,-0.5384 10.91662,-0.56434 l 2.63357,-0.0472 7.92326,20.47702 c 4.35779,11.26236 7.84487,20.55541 7.74907,20.65121 -0.0958,0.0958 -2.59417,-1.41152 -5.55193,-3.3496 -2.95775,-1.93808 -5.49599,-3.40364 -5.64053,-3.25679 -0.37414,0.38012 -16.97059,26.87017 -18.20544,29.05821 -1.80528,3.19879 -2.89799,6.93161 -4.21114,14.38582 l -0.252,1.43044 z"
       id="path1096"
       transform="matrix(1.1524255,0,0,1.1524255,-370.8163,-334.80523)" /><path
       style="fill:#1b60ae;fill-opacity:1;stroke:#000000;stroke-width:1.51181;stroke-dasharray:none;paint-order:stroke fill markers;filter:url(#filter15568);stroke-opacity:1"
       d="m 370.1627,380.05142 c -10.17948,-4.98222 -18.46793,-9.26056 -18.41879,-9.50741 0.19571,-0.98316 19.0816,-32.37313 20.5828,-34.21037 9.44417,-11.55829 20.41277,-12.35472 30.40094,-2.2074 3.3745,3.42827 7.44824,9.46732 9.22801,13.67992 l 1.00968,2.38984 -11.67543,19.4717 c -6.42148,10.70943 -11.88774,19.46508 -12.14725,19.457 -0.2595,-0.008 -8.80049,-4.09105 -18.97996,-9.07328 z"
       id="path1305"
       transform="matrix(1.1524255,0,0,1.1524255,-370.8163,-334.80523)" /><path
       style="fill:#1b60ae;fill-opacity:1;stroke:#000000;stroke-width:1.51181;stroke-dasharray:none;paint-order:stroke fill markers;filter:url(#filter15621);stroke-opacity:1"
       d="m 437.63539,375.37206 -20.85093,-2.43618 5.73986,-3.22871 c 3.15693,-1.7758 5.73987,-3.4385 5.73987,-3.69488 0,-0.58006 -14.96524,-26.29886 -17.35177,-29.82022 -1.94608,-2.87146 -6.06253,-6.92793 -9.52932,-9.39046 l -2.28167,-1.62071 6.96727,-0.30053 c 20.20932,-0.87175 39.71744,-1.41953 41.05149,-1.15271 3.19543,0.63908 4.75762,2.31348 11.81933,12.66824 l 6.89117,10.10469 3.0048,-1.64006 c 1.65265,-0.90203 4.37535,-2.38835 6.05045,-3.30295 1.67511,-0.91459 3.04198,-1.49443 3.0375,-1.28854 -0.004,0.2059 -3.75843,8.70302 -8.34212,18.88249 -8.15724,18.11565 -8.36325,18.50971 -9.71448,18.58242 -0.75928,0.0409 -10.76343,-1.02199 -22.23145,-2.36189 z"
       id="path1307"
       transform="matrix(1.1524255,0,0,1.1524255,-370.8163,-334.80523)" /><path
       style="display:inline;mix-blend-mode:normal;fill:#b48400;fill-opacity:1;stroke:#000000;stroke-width:1.51159446;stroke-dasharray:none;paint-order:stroke fill markers;filter:url(#filter15629);stroke-opacity:1"
       d="m 428.73275,478.0306 c -6.31385,-9.27541 -11.46852,-17.20505 -11.45482,-17.62141 0.0207,-0.62875 24.1282,-32.03327 26.29452,-34.25353 0.60243,-0.61742 0.64588,0.10075 0.35752,5.90938 l -0.32824,6.61222 8.6137,0.31082 c 4.73754,0.17094 13.25245,0.33596 18.92203,0.36671 11.08434,0.0601 13.01398,-0.21295 19.36093,-2.73961 1.62872,-0.64838 3.04112,-1.09906 3.13867,-1.00151 0.0975,0.0976 -4.04471,7.65589 -9.20501,16.79631 -5.16031,9.14043 -10.00524,17.8376 -10.76652,19.32704 -1.72112,3.36737 -4.13967,6.08627 -6.34471,7.13262 -1.44851,0.68737 -12.66945,1.58935 -26.05408,2.09433 -0.19328,0.007 -0.37898,1.64736 -0.41267,3.6446 -0.0337,1.99724 -0.19182,5.12874 -0.35142,6.95888 l -0.29017,3.32754 z"
       id="path2173"
       transform="matrix(1.1524255,0,0,1.1524255,-370.8163,-334.80523)" /><path
       style="fill:#b48400;fill-opacity:1;stroke:#000000;stroke-width:1.51181;stroke-dasharray:none;paint-order:stroke fill markers;filter:url(#filter15625);stroke-opacity:1"
       d="m 467.4302,434.17184 -1.83302,-0.28493 -6.26785,-11.94829 c -10.34467,-19.71987 -14.84175,-28.5624 -14.63091,-28.7685 0.15592,-0.15242 25.32402,-16.28006 33.73219,-21.61549 l 1.67043,-1.05997 5.31803,10.14235 c 2.92492,5.57829 6.78064,12.84895 8.56829,16.15702 1.78763,3.30808 3.9022,7.73597 4.69904,9.83977 1.2894,3.40425 1.45171,4.39216 1.4753,8.97926 0.0238,4.62883 -0.10012,5.42424 -1.21582,7.80405 -3.40773,7.26874 -12.17278,11.2597 -24.3916,11.10615 -2.91009,-0.0365 -6.11592,-0.19471 -7.12408,-0.35142 z"
       id="path2175"
       transform="matrix(1.1524255,0,0,1.1524255,-370.8163,-334.80523)" /></g></svg>
