<?xml version="1.0" encoding="UTF-8" standalone="no"?>
<!-- Created with Inkscape (http://www.inkscape.org/) -->

<svg
   width="210mm"
   height="297mm"
   viewBox="0 0 210 297"
   version="1.1"
   id="svg5"
   xml:space="preserve"
   sodipodi:docname="LogoTest7.svg"
   inkscape:version="1.2.2 (732a01da63, 2022-12-09)"
   xmlns:inkscape="http://www.inkscape.org/namespaces/inkscape"
   xmlns:sodipodi="http://sodipodi.sourceforge.net/DTD/sodipodi-0.dtd"
   xmlns="http://www.w3.org/2000/svg"
   xmlns:svg="http://www.w3.org/2000/svg"><sodipodi:namedview
     id="namedview7"
     pagecolor="#505050"
     bordercolor="#eeeeee"
     borderopacity="1"
     inkscape:showpageshadow="0"
     inkscape:pageopacity="0"
     inkscape:pagecheckerboard="0"
     inkscape:deskcolor="#505050"
     inkscape:document-units="mm"
     showgrid="false"
     inkscape:zoom="0.53354915"
     inkscape:cx="-626.93381"
     inkscape:cy="663.48152"
     inkscape:window-width="2560"
     inkscape:window-height="1027"
     inkscape:window-x="-8"
     inkscape:window-y="-8"
     inkscape:window-maximized="1"
     inkscape:current-layer="layer1" /><defs
     id="defs2"><filter
       inkscape:collect="always"
       style="color-interpolation-filters:sRGB"
       id="filter15564"
       x="-0.045286958"
       y="-0.032959956"
       width="1.0904367"
       height="1.0838144"><feGaussianBlur
         inkscape:collect="always"
         stdDeviation="0.77152202"
         id="feGaussianBlur15566" /></filter><filter
       inkscape:collect="always"
       style="color-interpolation-filters:sRGB"
       id="filter15568"
       x="-0.039575774"
       y="-0.038989092"
       width="1.0805777"
       height="1.077985"><feGaussianBlur
         inkscape:collect="always"
         stdDeviation="0.69353428"
         id="feGaussianBlur15570" /></filter><filter
       inkscape:collect="always"
       style="color-interpolation-filters:sRGB"
       id="filter15621"
       x="-0.051113855"
       y="-0.047157047"
       width="1.0834644"
       height="1.0943409"><feGaussianBlur
         inkscape:collect="always"
         stdDeviation="0.7475475"
         id="feGaussianBlur15623" /></filter><filter
       inkscape:collect="always"
       style="color-interpolation-filters:sRGB"
       id="filter15625"
       x="-0.042723858"
       y="-0.042032417"
       width="1.0854369"
       height="1.0790322"><feGaussianBlur
         inkscape:collect="always"
         stdDeviation="0.67221992"
         id="feGaussianBlur15627" /></filter><filter
       inkscape:collect="always"
       style="color-interpolation-filters:sRGB"
       id="filter15629"
       x="-0.03558928"
       y="-0.039058983"
       width="1.071183"
       height="1.0991304"><feGaussianBlur
         inkscape:collect="always"
         stdDeviation="0.81721096"
         id="feGaussianBlur15631" /></filter><filter
       inkscape:collect="always"
       style="color-interpolation-filters:sRGB"
       id="filter15633"
       x="-0.037132722"
       y="-0.048105785"
       width="1.0745902"
       height="1.0964119"><feGaussianBlur
         inkscape:collect="always"
         stdDeviation="0.57705859"
         id="feGaussianBlur15635" /></filter></defs><g
     inkscape:label="Layer 1"
     inkscape:groupmode="layer"
     id="layer1"><path
       style="fill:#020202;stroke:none;stroke-width:0.106099;stroke-dasharray:none"
       d="m 61.875908,230.50254 27.472163,9.57499 c 0.366246,-1.75575 2.450818,-27.22658 2.587858,-29.00737 0.285455,-3.70679 0.615035,-7.41057 0.900145,-11.11735 0.640684,-8.32629 1.927,-16.61091 0.696823,-24.93891 -0.552122,-3.73702 -1.416489,-7.48177 -3.68012,-10.71671 -2.930433,-4.18774 -7.126464,-7.6879 -11.766604,-10.34694 -3.36846,-1.93021 -7.025303,-3.48184 -10.464199,-5.31751 -3.592483,-1.91758 -7.152674,-3.87685 -10.689235,-5.87447 -1.662231,-0.93896 -3.188093,-2.08436 -4.950803,-2.87439 -1.855989,-0.83189 -4.693362,-1.98058 -6.751096,-1.04281 -2.514895,1.14598 -1.641643,3.70688 -0.368947,5.32471 2.843899,3.61474 7.332702,5.82188 10.945665,8.73061 1.168613,0.94077 4.681544,3.66913 1.800292,4.71387 -1.102005,0.39962 -2.325641,0.0415 -3.375549,-0.32431 -2.357933,-0.82148 -4.305398,-2.15567 -6.188503,-3.63398 -3.060724,-2.40275 -5.344282,-5.55235 -7.699288,-8.48465 -3.485704,-4.34006 -6.918524,-8.75285 -10.663694,-12.92015 -1.854864,-2.06392 -4.006099,-4.36321 -7.066146,-4.9408 -1.225099,-0.23126 -3.169527,-0.061 -3.696451,1.13486 -0.755449,1.71468 0.764674,3.43586 1.825272,4.70735 2.446935,2.93328 4.538762,6.14167 6.565328,9.31454 2.668145,4.17732 5.048919,8.50656 7.648429,12.71985 1.180091,1.91268 2.323503,4.35497 4.095214,5.89218 2.282545,1.98039 5.095052,3.61284 7.641114,5.31258 4.172517,2.78555 8.326353,5.59254 12.489529,8.38841 3.025503,2.03177 6.726004,4.13514 8.885678,6.94824 2.571719,3.34962 1.689689,7.75119 1.063299,11.51796 -0.889794,5.35137 -1.941953,10.70171 -3.020553,16.02501 m 54.370061,30.13315 26.89186,-8.7045 c -0.34993,-2.41177 -3.94342,-19.0329 -4.4295,-21.42865 -1.07792,-5.3233 -2.12997,-10.67466 -3.01998,-16.02501 -0.62674,-3.76677 -1.50888,-8.16823 1.06328,-11.51796 2.15924,-2.8131 5.85997,-4.91647 8.88557,-6.94824 4.16319,-2.79587 8.31735,-5.60286 12.48953,-8.38841 2.54629,-1.69964 5.35813,-3.33219 7.64112,-5.31258 1.77216,-1.53721 2.91534,-3.9795 4.09565,-5.89218 2.59919,-4.21329 4.98008,-8.54253 7.64789,-12.71985 2.02645,-3.17287 4.11817,-6.38117 6.56543,-9.31454 1.05991,-1.27047 2.57892,-2.99648 1.82504,-4.70735 -0.52657,-1.19596 -2.47089,-1.36612 -3.69622,-1.13486 -3.0605,0.57759 -5.21185,2.87688 -7.06614,4.9408 -3.74573,4.16761 -7.17755,8.57989 -10.66337,12.92015 -2.355,2.9323 -4.63912,6.0819 -7.69961,8.48465 -1.88355,1.47831 -3.83014,2.8125 -6.18851,3.63398 -1.0498,0.36577 -2.274,0.72393 -3.37555,0.32431 -2.8816,-1.04474 0.63123,-3.7731 1.80029,-4.71387 3.61297,-2.90873 8.10131,-5.11577 10.94578,-8.73061 1.27259,-1.61783 2.14572,-4.17873 -0.36906,-5.32471 -2.05797,-0.93777 -4.89567,0.21092 -6.75108,1.04281 -1.76318,0.79003 -3.28891,1.93543 -4.95082,2.87439 -3.53646,1.99762 -7.09652,3.95689 -10.68924,5.87447 -3.43856,1.83567 -7.0954,3.38709 -10.4642,5.31751 -4.64025,2.65892 -8.83605,6.1592 -11.76602,10.34694 -2.26388,3.23494 -3.12915,6.97969 -3.68048,10.71671 -1.22982,8.32791 0.0562,16.61262 0.69648,24.93891 0.2858,3.70678 0.61435,7.41056 0.90015,11.11735 0.1373,1.78079 2.99606,26.57459 3.36171,28.33034 z"
       id="path385"
       sodipodi:nodetypes="ccccccccccccsscscssccsssssccccccccccsccscscscccccscccccccsc" /><circle
       style="fill:none;stroke:#000000;stroke-width:5.27376;stroke-dasharray:none;paint-order:stroke fill markers"
       id="path2508"
       cx="104.90144"
       cy="139.84991"
       r="101.35926" /><path
       style="fill:#008000;fill-opacity:1;stroke:#ffffff;stroke-width:1.51181;stroke-dasharray:none;paint-order:stroke fill markers;filter:url(#filter15633)"
       d="m 397.91799,482.65692 c -29.36632,-1.74072 -31.78369,-2.19085 -37.34919,-6.95471 -7.10127,-6.07842 -7.76619,-14.72087 -2.03339,-26.42928 1.42759,-2.91563 3.71612,-6.53872 5.08563,-8.05129 l 2.49001,-2.75014 14.24686,0.85738 c 7.83577,0.47155 17.87663,1.07513 22.31302,1.34127 7.48092,0.44879 8.09038,0.58611 8.40005,1.89276 0.18364,0.77488 0.54581,10.28002 0.80481,21.12254 l 0.47092,19.71367 -2.57585,-0.0961 c -1.41672,-0.0529 -6.75051,-0.3436 -11.85287,-0.64605 z"
       id="path1094"
       transform="matrix(0.35018801,0,0,0.35018801,-42.560563,-41.494627)" /><path
       style="fill:#008000;fill-opacity:1;stroke:#ffffff;stroke-width:1.51181;stroke-dasharray:none;paint-order:stroke fill markers;filter:url(#filter15564)"
       d="m 346.5146,456.83283 c -1.75779,-3.06458 -6.35238,-11.07939 -10.21019,-17.81069 -3.8578,-6.73129 -7.28334,-12.62054 -7.61231,-13.08722 -2.23382,-3.16896 -3.32322,-7.06955 -2.71487,-9.72058 0.3252,-1.4171 8.39237,-17.25914 11.03541,-21.67097 l 0.63225,-1.05536 -5.63557,-3.846 c -3.09957,-2.1153 -5.70572,-3.9595 -5.79144,-4.09821 -0.0857,-0.13871 4.34504,-0.51194 9.84615,-0.82941 5.50112,-0.31747 13.7294,-0.80995 18.28509,-1.09439 4.55568,-0.28445 9.46816,-0.5384 10.91662,-0.56434 l 2.63357,-0.0472 7.92326,20.47702 c 4.35779,11.26236 7.84487,20.55541 7.74907,20.65121 -0.0958,0.0958 -2.59417,-1.41152 -5.55193,-3.3496 -2.95775,-1.93808 -5.49599,-3.40364 -5.64053,-3.25679 -0.37414,0.38012 -16.97059,26.87017 -18.20544,29.05821 -1.80528,3.19879 -2.89799,6.93161 -4.21114,14.38582 l -0.252,1.43044 z"
       id="path1096"
       transform="matrix(0.35018801,0,0,0.35018801,-42.560563,-41.494627)" /><path
       style="fill:#1b60ae;fill-opacity:1;stroke:#ffffff;stroke-width:1.51181;stroke-dasharray:none;paint-order:stroke fill markers;filter:url(#filter15568)"
       d="m 370.1627,380.05142 c -10.17948,-4.98222 -18.46793,-9.26056 -18.41879,-9.50741 0.19571,-0.98316 19.0816,-32.37313 20.5828,-34.21037 9.44417,-11.55829 20.41277,-12.35472 30.40094,-2.2074 3.3745,3.42827 7.44824,9.46732 9.22801,13.67992 l 1.00968,2.38984 -11.67543,19.4717 c -6.42148,10.70943 -11.88774,19.46508 -12.14725,19.457 -0.2595,-0.008 -8.80049,-4.09105 -18.97996,-9.07328 z"
       id="path1305"
       transform="matrix(0.35018801,0,0,0.35018801,-42.560563,-41.494627)" /><path
       style="fill:#1b60ae;fill-opacity:1;stroke:#ffffff;stroke-width:1.51181;stroke-dasharray:none;paint-order:stroke fill markers;filter:url(#filter15621)"
       d="m 437.63539,375.37206 -20.85093,-2.43618 5.73986,-3.22871 c 3.15693,-1.7758 5.73987,-3.4385 5.73987,-3.69488 0,-0.58006 -14.96524,-26.29886 -17.35177,-29.82022 -1.94608,-2.87146 -6.06253,-6.92793 -9.52932,-9.39046 l -2.28167,-1.62071 6.96727,-0.30053 c 20.20932,-0.87175 39.71744,-1.41953 41.05149,-1.15271 3.19543,0.63908 4.75762,2.31348 11.81933,12.66824 l 6.89117,10.10469 3.0048,-1.64006 c 1.65265,-0.90203 4.37535,-2.38835 6.05045,-3.30295 1.67511,-0.91459 3.04198,-1.49443 3.0375,-1.28854 -0.004,0.2059 -3.75843,8.70302 -8.34212,18.88249 -8.15724,18.11565 -8.36325,18.50971 -9.71448,18.58242 -0.75928,0.0409 -10.76343,-1.02199 -22.23145,-2.36189 z"
       id="path1307"
       transform="matrix(0.35018801,0,0,0.35018801,-42.560563,-41.494627)" /><path
       style="display:inline;mix-blend-mode:normal;fill:#b48400;fill-opacity:1;stroke:#ffffff;stroke-width:1.51181;stroke-dasharray:none;paint-order:stroke fill markers;filter:url(#filter15629)"
       d="m 428.73275,478.0306 c -6.31385,-9.27541 -11.46852,-17.20505 -11.45482,-17.62141 0.0207,-0.62875 24.1282,-32.03327 26.29452,-34.25353 0.60243,-0.61742 0.64588,0.10075 0.35752,5.90938 l -0.32824,6.61222 8.6137,0.31082 c 4.73754,0.17094 13.25245,0.33596 18.92203,0.36671 11.08434,0.0601 13.01398,-0.21295 19.36093,-2.73961 1.62872,-0.64838 3.04112,-1.09906 3.13867,-1.00151 0.0975,0.0976 -4.04471,7.65589 -9.20501,16.79631 -5.16031,9.14043 -10.00524,17.8376 -10.76652,19.32704 -1.72112,3.36737 -4.13967,6.08627 -6.34471,7.13262 -1.44851,0.68737 -12.66945,1.58935 -26.05408,2.09433 -0.19328,0.007 -0.37898,1.64736 -0.41267,3.6446 -0.0337,1.99724 -0.19182,5.12874 -0.35142,6.95888 l -0.29017,3.32754 z"
       id="path2173"
       transform="matrix(0.35018801,0,0,0.35018801,-42.560563,-41.494627)" /><path
       style="fill:#b48400;fill-opacity:1;stroke:#ffffff;stroke-width:1.51181;stroke-dasharray:none;paint-order:stroke fill markers;filter:url(#filter15625)"
       d="m 467.4302,434.17184 -1.83302,-0.28493 -6.26785,-11.94829 c -10.34467,-19.71987 -14.84175,-28.5624 -14.63091,-28.7685 0.15592,-0.15242 25.32402,-16.28006 33.73219,-21.61549 l 1.67043,-1.05997 5.31803,10.14235 c 2.92492,5.57829 6.78064,12.84895 8.56829,16.15702 1.78763,3.30808 3.9022,7.73597 4.69904,9.83977 1.2894,3.40425 1.45171,4.39216 1.4753,8.97926 0.0238,4.62883 -0.10012,5.42424 -1.21582,7.80405 -3.40773,7.26874 -12.17278,11.2597 -24.3916,11.10615 -2.91009,-0.0365 -6.11592,-0.19471 -7.12408,-0.35142 z"
       id="path2175"
       transform="matrix(0.35018801,0,0,0.35018801,-42.560563,-41.494627)" /></g></svg>
