<?xml version="1.0" encoding="UTF-8" standalone="no"?>
<!-- Created with Inkscape (http://www.inkscape.org/) -->

<svg
   width="210mm"
   height="297mm"
   viewBox="0 0 210 297"
   version="1.1"
   id="svg5"
   xml:space="preserve"
   sodipodi:docname="LogoTest6.svg"
   inkscape:version="1.2.2 (732a01da63, 2022-12-09)"
   xmlns:inkscape="http://www.inkscape.org/namespaces/inkscape"
   xmlns:sodipodi="http://sodipodi.sourceforge.net/DTD/sodipodi-0.dtd"
   xmlns="http://www.w3.org/2000/svg"
   xmlns:svg="http://www.w3.org/2000/svg"><sodipodi:namedview
     id="namedview7"
     pagecolor="#505050"
     bordercolor="#eeeeee"
     borderopacity="1"
     inkscape:showpageshadow="0"
     inkscape:pageopacity="0"
     inkscape:pagecheckerboard="0"
     inkscape:deskcolor="#505050"
     inkscape:document-units="mm"
     showgrid="false"
     inkscape:zoom="0.75455247"
     inkscape:cx="113.3122"
     inkscape:cy="601.68115"
     inkscape:window-width="2560"
     inkscape:window-height="1027"
     inkscape:window-x="-8"
     inkscape:window-y="-8"
     inkscape:window-maximized="1"
     inkscape:current-layer="layer1" /><defs
     id="defs2" /><g
     inkscape:label="Layer 1"
     inkscape:groupmode="layer"
     id="layer1"><path
       style="fill:#020202;stroke:none;stroke-width:0.105264;stroke-dasharray:none"
       d="m 62.255703,230.20498 27.139884,9.54021 c 0.361809,-1.74937 2.421156,-27.12774 2.556534,-28.90206 0.282007,-3.69334 0.607585,-7.38365 0.889247,-11.07699 0.632928,-8.29608 1.903686,-16.55061 0.688394,-24.84837 -0.54544,-3.72347 -1.39934,-7.45462 -3.63558,-10.67781 -2.89497,-4.17255 -7.04024,-7.65999 -11.624248,-10.30938 -3.327717,-1.92321 -6.940338,-3.4692 -10.33765,-5.29822 -3.54904,-1.91061 -7.06618,-3.86277 -10.559975,-5.85314 -1.642132,-0.93555 -3.14954,-2.07679 -4.890934,-2.86394 -1.833545,-0.82889 -4.636608,-1.97341 -6.669459,-1.03902 -2.484484,1.14181 -1.621792,3.69341 -0.364486,5.30536 2.809509,3.60163 7.244031,5.80075 10.813305,8.69892 1.154481,0.93735 4.624932,3.65582 1.778521,4.69677 -1.088679,0.39815 -2.297517,0.0414 -3.334729,-0.32314 -2.32942,-0.81851 -4.253334,-2.14785 -6.11367,-3.62079 -3.02371,-2.39404 -5.279654,-5.5322 -7.606183,-8.45385 -3.443552,-4.32431 -6.83486,-8.72106 -10.534743,-12.87324 -1.832434,-2.05645 -3.957656,-4.34738 -6.980701,-4.92287 -1.210285,-0.23042 -3.1312,-0.0607 -3.651753,1.13075 -0.746314,1.70845 0.755428,3.42338 1.803201,4.69025 2.417346,2.92263 4.483879,6.11938 6.485939,9.28073 2.635882,4.16214 4.987866,8.47568 7.555942,12.67367 1.16582,1.90573 2.295403,4.33917 4.045692,5.87079 2.254943,1.9732 5.03344,3.59972 7.548714,5.29331 4.122059,2.77543 8.225664,5.57222 12.338496,8.35793 2.988918,2.02441 6.644673,4.12013 8.778229,6.92302 2.540621,3.33747 1.669255,7.72306 1.050442,11.47616 -0.879036,5.33193 -1.918471,10.66286 -2.984028,15.96684 m 53.712406,30.02376 26.56666,-8.67291 c -0.3457,-2.40301 -3.89573,-18.9638 -4.37594,-21.35085 -1.06489,-5.30398 -2.1042,-10.63591 -2.98347,-15.96684 -0.61916,-3.7531 -1.49061,-8.13859 1.05043,-11.47616 2.13311,-2.80289 5.78911,-4.89861 8.77811,-6.92302 4.11285,-2.78571 8.21677,-5.5825 12.33852,-8.35793 2.51549,-1.69349 5.29333,-3.32011 7.5487,-5.29331 1.75073,-1.53162 2.88009,-3.96506 4.04615,-5.87079 2.56775,-4.19799 4.91982,-8.51153 7.55538,-12.67367 2.00195,-3.16135 4.06838,-6.358 6.48604,-9.28073 1.0471,-1.26586 2.54773,-2.98561 1.80298,-4.69025 -0.52021,-1.19163 -2.44102,-1.36117 -3.65152,-1.13075 -3.02349,0.57549 -5.14884,2.86642 -6.98069,4.92287 -3.70044,4.15247 -7.09077,8.54874 -10.53443,12.87324 -2.32651,2.92165 -4.58303,6.05981 -7.60651,8.45385 -1.86077,1.47294 -3.78381,2.80228 -6.11367,3.62079 -1.03711,0.36443 -2.24651,0.72129 -3.33473,0.32314 -2.84675,-1.04095 0.62361,-3.75942 1.77852,-4.69677 3.56927,-2.89817 8.00335,-5.09721 10.81342,-8.69892 1.25719,-1.61195 2.11978,-4.16355 -0.36459,-5.30536 -2.03309,-0.93439 -4.83649,0.21013 -6.66947,1.03902 -1.74183,0.78715 -3.24912,1.92839 -4.89093,2.86394 -3.49369,1.99037 -7.0107,3.94253 -10.55999,5.85314 -3.39697,1.82902 -7.00958,3.3748 -10.33766,5.29822 -4.58414,2.64928 -8.72921,6.13683 -11.62372,10.30938 -2.2365,3.22319 -3.09132,6.95434 -3.63595,10.67781 -1.21497,8.29766 0.0556,16.55229 0.68804,24.84837 0.28234,3.69334 0.60692,7.38365 0.88927,11.07699 0.13563,1.77432 2.95981,26.47813 3.32105,28.2275 z"
       id="path385"
       sodipodi:nodetypes="ccccccccccccsscscssccsssssccccccccccsccscscscccccscccccccsc" /><ellipse
       style="fill:none;stroke:#000000;stroke-width:5.23226;stroke-dasharray:none;paint-order:stroke fill markers"
       id="path2508"
       cx="104.76096"
       cy="139.88187"
       rx="100.13358"
       ry="100.9913" /><path
       style="fill:#008000;fill-opacity:1;stroke:#000000;stroke-width:0.529948;stroke-dasharray:none;paint-order:stroke fill markers"
       d="m 93.297844,143.93896 c -17.083603,-1.02134 -18.489897,-1.28545 -21.727592,-4.08056 -4.131125,-3.56635 -4.517922,-8.63716 -1.182912,-15.50683 0.830493,-1.71071 2.161838,-3.83647 2.958539,-4.72394 l 1.448548,-1.6136 8.288026,0.50306 c 4.558372,0.27667 10.399537,0.63081 12.980381,0.78696 4.351976,0.26332 4.706536,0.3439 4.886666,1.11055 0.10684,0.45463 0.31754,6.03158 0.46821,12.39321 l 0.27396,11.56662 -1.49851,-0.0563 c -0.824161,-0.0311 -3.927058,-0.20158 -6.895316,-0.37906 z"
       id="path1094" /><path
       style="fill:#008000;fill-opacity:1;stroke:#000000;stroke-width:0.441625;stroke-dasharray:none;paint-order:stroke fill markers"
       d="m 63.394294,128.78717 c -1.022588,-1.79809 -3.695477,-6.50059 -5.939746,-10.45006 -2.244265,-3.94945 -4.237061,-7.40484 -4.428437,-7.67867 -1.299519,-1.85931 -1.933273,-4.14791 -1.579368,-5.70333 0.189177,-0.83145 4.882237,-10.126432 6.419816,-12.714989 l 0.367809,-0.61921 -3.278473,-2.256561 c -1.803169,-1.241087 -3.319289,-2.323174 -3.369155,-2.404538 -0.04984,-0.08131 2.527711,-0.300346 5.727966,-0.486609 3.200261,-0.186292 7.987037,-0.47523 10.637293,-0.642119 2.650227,-0.166963 5.508033,-0.315869 6.350671,-0.331132 l 1.53206,-0.02782 4.609307,12.014433 c 2.535122,6.607965 4.563685,12.060475 4.507978,12.116705 -0.05582,0.0562 -1.509154,-0.8282 -3.229809,-1.96531 -1.720637,-1.13713 -3.19726,-1.99704 -3.281335,-1.91087 -0.217656,0.22303 -9.872535,15.76553 -10.5909,17.04932 -1.050214,1.87679 -1.685894,4.06699 -2.449814,8.44056 l -0.146583,0.83932 z"
       id="path1096" /><path
       style="fill:#1b60ae;fill-opacity:1;stroke:#000000;stroke-width:0.206928;stroke-dasharray:none;paint-order:stroke fill markers"
       d="m 77.151438,83.737304 c -5.921845,-2.923213 -10.743596,-5.433448 -10.715002,-5.578279 0.113929,-0.576849 11.100597,-18.994284 11.97391,-20.072251 5.494077,-6.781596 11.874947,-7.248884 17.685497,-1.295148 1.963068,2.01147 4.332977,5.554762 5.368327,8.026414 l 0.5874,1.402201 -6.792154,11.424636 c -3.735614,6.283541 -6.915543,11.420707 -7.066542,11.415943 -0.151086,-0.0057 -5.119596,-2.400284 -11.041436,-5.323516 z"
       id="path1305" /><path
       style="fill:#1b60ae;fill-opacity:1;stroke:#000000;stroke-width:0.206928;stroke-dasharray:none;paint-order:stroke fill markers"
       d="m 116.40328,80.991795 -12.12997,-1.429393 3.33912,-1.894372 c 1.83659,-1.041915 3.33917,-2.017465 3.33917,-2.167888 0,-0.340343 -8.70596,-15.430341 -10.09434,-17.49643 -1.132127,-1.684774 -3.526828,-4.064825 -5.543618,-5.509667 l -1.32733,-0.950918 4.053156,-0.176343 c 11.756692,-0.51148 23.105462,-0.832881 23.881542,-0.676329 1.85895,0.374968 2.76775,1.357392 6.87586,7.432837 l 4.00891,5.928727 1.74804,-0.962273 c 0.9614,-0.529249 2.54531,-1.401315 3.51982,-1.937938 0.9745,-0.536618 1.76963,-0.876826 1.76707,-0.756025 -0.001,0.120819 -2.18645,5.106329 -4.85301,11.078922 -4.74546,10.62899 -4.86528,10.860196 -5.65138,10.902847 -0.4417,0.02382 -6.26156,-0.599611 -12.93304,-1.385785 z"
       id="path1307" /><path
       style="fill:#b48400;fill-opacity:1;stroke:#000000;stroke-width:0.206928;stroke-dasharray:none;paint-order:stroke fill markers"
       d="m 111.2242,141.22455 c -3.67307,-5.44217 -6.67178,-10.09471 -6.66382,-10.33898 0.0114,-0.36894 14.03653,-18.79492 15.29676,-20.09761 0.35048,-0.36226 0.37576,0.0592 0.20799,3.46722 l -0.19084,3.87958 5.01099,0.1823 c 2.75601,0.10013 7.70956,0.19713 11.0078,0.2151 6.44828,0.0352 7.57084,-0.12495 11.26317,-1.6074 0.94749,-0.38042 1.76915,-0.64485 1.82589,-0.58761 0.0566,0.0572 -2.35298,4.49193 -5.35494,9.85488 -3.00203,5.36296 -5.82054,10.46585 -6.26341,11.33974 -1.00127,1.97575 -2.40824,3.57105 -3.69102,4.18493 -0.84267,0.40329 -7.37039,0.93253 -15.15684,1.22883 -0.11226,0.006 -0.22047,0.96653 -0.24009,2.1384 -0.0197,1.17183 -0.11169,3.00916 -0.2045,4.08297 l -0.16886,1.95234 z"
       id="path2173" /><path
       style="fill:#b48400;fill-opacity:1;stroke:#000000;stroke-width:0.206928;stroke-dasharray:none;paint-order:stroke fill markers"
       d="m 133.73629,115.49128 -1.06634,-0.16713 -3.64631,-7.01038 c -6.01796,-11.570229 -8.63411,-16.758389 -8.51148,-16.879337 0.091,-0.08929 14.73215,-9.551963 19.62358,-12.682383 l 0.9718,-0.621939 3.09374,5.950821 c 1.70152,3.272932 3.94459,7.538838 4.98454,9.479776 1.03996,1.940929 2.27011,4.538874 2.73366,5.773248 0.75013,1.997354 0.84452,2.577014 0.85824,5.268414 0.0147,2.71587 -0.0583,3.18252 -0.70727,4.57887 -1.98244,4.26478 -7.08149,6.6064 -14.18973,6.5163 -1.69298,-0.0222 -3.55795,-0.1144 -4.14443,-0.20625 z"
       id="path2175" /></g></svg>
